<mxfile host="app.diagrams.net" modified="2021-08-04T15:01:10.072Z" agent="5.0 (Windows NT 10.0; Win64; x64) AppleWebKit/537.36 (KHTML, like Gecko) Chrome/92.0.4515.107 Safari/537.36" etag="dlvOBRy2P3kwaDQ2hACC" version="14.9.3" type="github">
  <diagram id="fBKo5sXfGQY_q-hxMvpM" name="Page-1">
    <mxGraphModel dx="1718" dy="482" grid="1" gridSize="10" guides="1" tooltips="1" connect="1" arrows="1" fold="1" page="1" pageScale="1" pageWidth="850" pageHeight="1100" math="0" shadow="0">
      <root>
        <mxCell id="0" />
        <mxCell id="1" parent="0" />
        <mxCell id="jsgp8Io5BWECslSWmgJ6-14" value="tblUsers" style="shape=table;startSize=30;container=1;collapsible=1;childLayout=tableLayout;fixedRows=1;rowLines=0;fontStyle=1;align=center;resizeLast=1;" vertex="1" parent="1">
          <mxGeometry x="20" y="40" width="210" height="270" as="geometry" />
        </mxCell>
        <mxCell id="jsgp8Io5BWECslSWmgJ6-15" value="" style="shape=partialRectangle;collapsible=0;dropTarget=0;pointerEvents=0;fillColor=none;top=0;left=0;bottom=1;right=0;points=[[0,0.5],[1,0.5]];portConstraint=eastwest;" vertex="1" parent="jsgp8Io5BWECslSWmgJ6-14">
          <mxGeometry y="30" width="210" height="30" as="geometry" />
        </mxCell>
        <mxCell id="jsgp8Io5BWECslSWmgJ6-16" value="PK" style="shape=partialRectangle;connectable=0;fillColor=none;top=0;left=0;bottom=0;right=0;fontStyle=1;overflow=hidden;" vertex="1" parent="jsgp8Io5BWECslSWmgJ6-15">
          <mxGeometry width="30" height="30" as="geometry" />
        </mxCell>
        <mxCell id="jsgp8Io5BWECslSWmgJ6-17" value="UserID" style="shape=partialRectangle;connectable=0;fillColor=none;top=0;left=0;bottom=0;right=0;align=left;spacingLeft=6;fontStyle=5;overflow=hidden;" vertex="1" parent="jsgp8Io5BWECslSWmgJ6-15">
          <mxGeometry x="30" width="180" height="30" as="geometry" />
        </mxCell>
        <mxCell id="jsgp8Io5BWECslSWmgJ6-18" value="" style="shape=partialRectangle;collapsible=0;dropTarget=0;pointerEvents=0;fillColor=none;top=0;left=0;bottom=0;right=0;points=[[0,0.5],[1,0.5]];portConstraint=eastwest;" vertex="1" parent="jsgp8Io5BWECslSWmgJ6-14">
          <mxGeometry y="60" width="210" height="30" as="geometry" />
        </mxCell>
        <mxCell id="jsgp8Io5BWECslSWmgJ6-19" value="" style="shape=partialRectangle;connectable=0;fillColor=none;top=0;left=0;bottom=0;right=0;editable=1;overflow=hidden;" vertex="1" parent="jsgp8Io5BWECslSWmgJ6-18">
          <mxGeometry width="30" height="30" as="geometry" />
        </mxCell>
        <mxCell id="jsgp8Io5BWECslSWmgJ6-20" value="userName VARCHAR(50)" style="shape=partialRectangle;connectable=0;fillColor=none;top=0;left=0;bottom=0;right=0;align=left;spacingLeft=6;overflow=hidden;" vertex="1" parent="jsgp8Io5BWECslSWmgJ6-18">
          <mxGeometry x="30" width="180" height="30" as="geometry" />
        </mxCell>
        <mxCell id="jsgp8Io5BWECslSWmgJ6-21" value="" style="shape=partialRectangle;collapsible=0;dropTarget=0;pointerEvents=0;fillColor=none;top=0;left=0;bottom=0;right=0;points=[[0,0.5],[1,0.5]];portConstraint=eastwest;" vertex="1" parent="jsgp8Io5BWECslSWmgJ6-14">
          <mxGeometry y="90" width="210" height="30" as="geometry" />
        </mxCell>
        <mxCell id="jsgp8Io5BWECslSWmgJ6-22" value="" style="shape=partialRectangle;connectable=0;fillColor=none;top=0;left=0;bottom=0;right=0;editable=1;overflow=hidden;" vertex="1" parent="jsgp8Io5BWECslSWmgJ6-21">
          <mxGeometry width="30" height="30" as="geometry" />
        </mxCell>
        <mxCell id="jsgp8Io5BWECslSWmgJ6-23" value="userEmail VARCHAR(50)" style="shape=partialRectangle;connectable=0;fillColor=none;top=0;left=0;bottom=0;right=0;align=left;spacingLeft=6;overflow=hidden;" vertex="1" parent="jsgp8Io5BWECslSWmgJ6-21">
          <mxGeometry x="30" width="180" height="30" as="geometry" />
        </mxCell>
        <mxCell id="jsgp8Io5BWECslSWmgJ6-24" value="" style="shape=partialRectangle;collapsible=0;dropTarget=0;pointerEvents=0;fillColor=none;top=0;left=0;bottom=0;right=0;points=[[0,0.5],[1,0.5]];portConstraint=eastwest;" vertex="1" parent="jsgp8Io5BWECslSWmgJ6-14">
          <mxGeometry y="120" width="210" height="30" as="geometry" />
        </mxCell>
        <mxCell id="jsgp8Io5BWECslSWmgJ6-25" value="" style="shape=partialRectangle;connectable=0;fillColor=none;top=0;left=0;bottom=0;right=0;editable=1;overflow=hidden;" vertex="1" parent="jsgp8Io5BWECslSWmgJ6-24">
          <mxGeometry width="30" height="30" as="geometry" />
        </mxCell>
        <mxCell id="jsgp8Io5BWECslSWmgJ6-26" value="userPhoneNumber INT(11)" style="shape=partialRectangle;connectable=0;fillColor=none;top=0;left=0;bottom=0;right=0;align=left;spacingLeft=6;overflow=hidden;" vertex="1" parent="jsgp8Io5BWECslSWmgJ6-24">
          <mxGeometry x="30" width="180" height="30" as="geometry" />
        </mxCell>
        <mxCell id="jsgp8Io5BWECslSWmgJ6-40" value="" style="shape=partialRectangle;collapsible=0;dropTarget=0;pointerEvents=0;fillColor=none;top=0;left=0;bottom=0;right=0;points=[[0,0.5],[1,0.5]];portConstraint=eastwest;" vertex="1" parent="jsgp8Io5BWECslSWmgJ6-14">
          <mxGeometry y="150" width="210" height="30" as="geometry" />
        </mxCell>
        <mxCell id="jsgp8Io5BWECslSWmgJ6-41" value="" style="shape=partialRectangle;connectable=0;fillColor=none;top=0;left=0;bottom=0;right=0;editable=1;overflow=hidden;" vertex="1" parent="jsgp8Io5BWECslSWmgJ6-40">
          <mxGeometry width="30" height="30" as="geometry" />
        </mxCell>
        <mxCell id="jsgp8Io5BWECslSWmgJ6-42" value="userPassword VARCHAR(500)" style="shape=partialRectangle;connectable=0;fillColor=none;top=0;left=0;bottom=0;right=0;align=left;spacingLeft=6;overflow=hidden;" vertex="1" parent="jsgp8Io5BWECslSWmgJ6-40">
          <mxGeometry x="30" width="180" height="30" as="geometry" />
        </mxCell>
        <mxCell id="jsgp8Io5BWECslSWmgJ6-43" value="" style="shape=partialRectangle;collapsible=0;dropTarget=0;pointerEvents=0;fillColor=none;top=0;left=0;bottom=0;right=0;points=[[0,0.5],[1,0.5]];portConstraint=eastwest;" vertex="1" parent="jsgp8Io5BWECslSWmgJ6-14">
          <mxGeometry y="180" width="210" height="30" as="geometry" />
        </mxCell>
        <mxCell id="jsgp8Io5BWECslSWmgJ6-44" value="" style="shape=partialRectangle;connectable=0;fillColor=none;top=0;left=0;bottom=0;right=0;editable=1;overflow=hidden;" vertex="1" parent="jsgp8Io5BWECslSWmgJ6-43">
          <mxGeometry width="30" height="30" as="geometry" />
        </mxCell>
        <mxCell id="jsgp8Io5BWECslSWmgJ6-45" value="userUniversity VARCHAR(50)" style="shape=partialRectangle;connectable=0;fillColor=none;top=0;left=0;bottom=0;right=0;align=left;spacingLeft=6;overflow=hidden;" vertex="1" parent="jsgp8Io5BWECslSWmgJ6-43">
          <mxGeometry x="30" width="180" height="30" as="geometry" />
        </mxCell>
        <mxCell id="jsgp8Io5BWECslSWmgJ6-46" value="" style="shape=partialRectangle;collapsible=0;dropTarget=0;pointerEvents=0;fillColor=none;top=0;left=0;bottom=0;right=0;points=[[0,0.5],[1,0.5]];portConstraint=eastwest;" vertex="1" parent="jsgp8Io5BWECslSWmgJ6-14">
          <mxGeometry y="210" width="210" height="30" as="geometry" />
        </mxCell>
        <mxCell id="jsgp8Io5BWECslSWmgJ6-47" value="" style="shape=partialRectangle;connectable=0;fillColor=none;top=0;left=0;bottom=0;right=0;editable=1;overflow=hidden;" vertex="1" parent="jsgp8Io5BWECslSWmgJ6-46">
          <mxGeometry width="30" height="30" as="geometry" />
        </mxCell>
        <mxCell id="jsgp8Io5BWECslSWmgJ6-48" value="userLocation geography" style="shape=partialRectangle;connectable=0;fillColor=none;top=0;left=0;bottom=0;right=0;align=left;spacingLeft=6;overflow=hidden;" vertex="1" parent="jsgp8Io5BWECslSWmgJ6-46">
          <mxGeometry x="30" width="180" height="30" as="geometry" />
        </mxCell>
        <mxCell id="jsgp8Io5BWECslSWmgJ6-49" value="" style="shape=partialRectangle;collapsible=0;dropTarget=0;pointerEvents=0;fillColor=none;top=0;left=0;bottom=0;right=0;points=[[0,0.5],[1,0.5]];portConstraint=eastwest;" vertex="1" parent="jsgp8Io5BWECslSWmgJ6-14">
          <mxGeometry y="240" width="210" height="30" as="geometry" />
        </mxCell>
        <mxCell id="jsgp8Io5BWECslSWmgJ6-50" value="" style="shape=partialRectangle;connectable=0;fillColor=none;top=0;left=0;bottom=0;right=0;editable=1;overflow=hidden;" vertex="1" parent="jsgp8Io5BWECslSWmgJ6-49">
          <mxGeometry width="30" height="30" as="geometry" />
        </mxCell>
        <mxCell id="jsgp8Io5BWECslSWmgJ6-51" value="" style="shape=partialRectangle;connectable=0;fillColor=none;top=0;left=0;bottom=0;right=0;align=left;spacingLeft=6;overflow=hidden;" vertex="1" parent="jsgp8Io5BWECslSWmgJ6-49">
          <mxGeometry x="30" width="180" height="30" as="geometry" />
        </mxCell>
        <mxCell id="jsgp8Io5BWECslSWmgJ6-27" value="tblSaved" style="shape=table;startSize=30;container=1;collapsible=1;childLayout=tableLayout;fixedRows=1;rowLines=0;fontStyle=1;align=center;resizeLast=1;" vertex="1" parent="1">
          <mxGeometry x="320" y="40" width="240" height="220" as="geometry" />
        </mxCell>
        <mxCell id="jsgp8Io5BWECslSWmgJ6-28" value="" style="shape=partialRectangle;collapsible=0;dropTarget=0;pointerEvents=0;fillColor=none;top=0;left=0;bottom=0;right=0;points=[[0,0.5],[1,0.5]];portConstraint=eastwest;" vertex="1" parent="jsgp8Io5BWECslSWmgJ6-27">
          <mxGeometry y="30" width="240" height="30" as="geometry" />
        </mxCell>
        <mxCell id="jsgp8Io5BWECslSWmgJ6-29" value="PK,FK1" style="shape=partialRectangle;connectable=0;fillColor=none;top=0;left=0;bottom=0;right=0;fontStyle=1;overflow=hidden;" vertex="1" parent="jsgp8Io5BWECslSWmgJ6-28">
          <mxGeometry width="60" height="30" as="geometry" />
        </mxCell>
        <mxCell id="jsgp8Io5BWECslSWmgJ6-30" value="userID" style="shape=partialRectangle;connectable=0;fillColor=none;top=0;left=0;bottom=0;right=0;align=left;spacingLeft=6;fontStyle=5;overflow=hidden;" vertex="1" parent="jsgp8Io5BWECslSWmgJ6-28">
          <mxGeometry x="60" width="180" height="30" as="geometry" />
        </mxCell>
        <mxCell id="jsgp8Io5BWECslSWmgJ6-31" value="" style="shape=partialRectangle;collapsible=0;dropTarget=0;pointerEvents=0;fillColor=none;top=0;left=0;bottom=1;right=0;points=[[0,0.5],[1,0.5]];portConstraint=eastwest;" vertex="1" parent="jsgp8Io5BWECslSWmgJ6-27">
          <mxGeometry y="60" width="240" height="30" as="geometry" />
        </mxCell>
        <mxCell id="jsgp8Io5BWECslSWmgJ6-32" value="PK,FK2" style="shape=partialRectangle;connectable=0;fillColor=none;top=0;left=0;bottom=0;right=0;fontStyle=1;overflow=hidden;" vertex="1" parent="jsgp8Io5BWECslSWmgJ6-31">
          <mxGeometry width="60" height="30" as="geometry" />
        </mxCell>
        <mxCell id="jsgp8Io5BWECslSWmgJ6-33" value="prodID" style="shape=partialRectangle;connectable=0;fillColor=none;top=0;left=0;bottom=0;right=0;align=left;spacingLeft=6;fontStyle=5;overflow=hidden;" vertex="1" parent="jsgp8Io5BWECslSWmgJ6-31">
          <mxGeometry x="60" width="180" height="30" as="geometry" />
        </mxCell>
        <mxCell id="jsgp8Io5BWECslSWmgJ6-34" value="" style="shape=partialRectangle;collapsible=0;dropTarget=0;pointerEvents=0;fillColor=none;top=0;left=0;bottom=0;right=0;points=[[0,0.5],[1,0.5]];portConstraint=eastwest;" vertex="1" parent="jsgp8Io5BWECslSWmgJ6-27">
          <mxGeometry y="90" width="240" height="30" as="geometry" />
        </mxCell>
        <mxCell id="jsgp8Io5BWECslSWmgJ6-35" value="" style="shape=partialRectangle;connectable=0;fillColor=none;top=0;left=0;bottom=0;right=0;editable=1;overflow=hidden;" vertex="1" parent="jsgp8Io5BWECslSWmgJ6-34">
          <mxGeometry width="60" height="30" as="geometry" />
        </mxCell>
        <mxCell id="jsgp8Io5BWECslSWmgJ6-36" value="savedID  INT (11)" style="shape=partialRectangle;connectable=0;fillColor=none;top=0;left=0;bottom=0;right=0;align=left;spacingLeft=6;overflow=hidden;" vertex="1" parent="jsgp8Io5BWECslSWmgJ6-34">
          <mxGeometry x="60" width="180" height="30" as="geometry" />
        </mxCell>
        <mxCell id="jsgp8Io5BWECslSWmgJ6-37" value="" style="shape=partialRectangle;collapsible=0;dropTarget=0;pointerEvents=0;fillColor=none;top=0;left=0;bottom=0;right=0;points=[[0,0.5],[1,0.5]];portConstraint=eastwest;" vertex="1" parent="jsgp8Io5BWECslSWmgJ6-27">
          <mxGeometry y="120" width="240" height="30" as="geometry" />
        </mxCell>
        <mxCell id="jsgp8Io5BWECslSWmgJ6-38" value="" style="shape=partialRectangle;connectable=0;fillColor=none;top=0;left=0;bottom=0;right=0;editable=1;overflow=hidden;" vertex="1" parent="jsgp8Io5BWECslSWmgJ6-37">
          <mxGeometry width="60" height="30" as="geometry" />
        </mxCell>
        <mxCell id="jsgp8Io5BWECslSWmgJ6-39" value="userID INT (11)" style="shape=partialRectangle;connectable=0;fillColor=none;top=0;left=0;bottom=0;right=0;align=left;spacingLeft=6;overflow=hidden;" vertex="1" parent="jsgp8Io5BWECslSWmgJ6-37">
          <mxGeometry x="60" width="180" height="30" as="geometry" />
        </mxCell>
        <mxCell id="jsgp8Io5BWECslSWmgJ6-65" value="" style="shape=partialRectangle;collapsible=0;dropTarget=0;pointerEvents=0;fillColor=none;top=0;left=0;bottom=0;right=0;points=[[0,0.5],[1,0.5]];portConstraint=eastwest;" vertex="1" parent="jsgp8Io5BWECslSWmgJ6-27">
          <mxGeometry y="150" width="240" height="30" as="geometry" />
        </mxCell>
        <mxCell id="jsgp8Io5BWECslSWmgJ6-66" value="" style="shape=partialRectangle;connectable=0;fillColor=none;top=0;left=0;bottom=0;right=0;editable=1;overflow=hidden;" vertex="1" parent="jsgp8Io5BWECslSWmgJ6-65">
          <mxGeometry width="60" height="30" as="geometry" />
        </mxCell>
        <mxCell id="jsgp8Io5BWECslSWmgJ6-67" value="prodID INT (11)" style="shape=partialRectangle;connectable=0;fillColor=none;top=0;left=0;bottom=0;right=0;align=left;spacingLeft=6;overflow=hidden;" vertex="1" parent="jsgp8Io5BWECslSWmgJ6-65">
          <mxGeometry x="60" width="180" height="30" as="geometry" />
        </mxCell>
        <mxCell id="jsgp8Io5BWECslSWmgJ6-68" value="" style="shape=partialRectangle;collapsible=0;dropTarget=0;pointerEvents=0;fillColor=none;top=0;left=0;bottom=0;right=0;points=[[0,0.5],[1,0.5]];portConstraint=eastwest;" vertex="1" parent="jsgp8Io5BWECslSWmgJ6-27">
          <mxGeometry y="180" width="240" height="30" as="geometry" />
        </mxCell>
        <mxCell id="jsgp8Io5BWECslSWmgJ6-69" value="" style="shape=partialRectangle;connectable=0;fillColor=none;top=0;left=0;bottom=0;right=0;editable=1;overflow=hidden;" vertex="1" parent="jsgp8Io5BWECslSWmgJ6-68">
          <mxGeometry width="60" height="30" as="geometry" />
        </mxCell>
        <mxCell id="jsgp8Io5BWECslSWmgJ6-70" value="dateSaved TIMESTAMP " style="shape=partialRectangle;connectable=0;fillColor=none;top=0;left=0;bottom=0;right=0;align=left;spacingLeft=6;overflow=hidden;" vertex="1" parent="jsgp8Io5BWECslSWmgJ6-68">
          <mxGeometry x="60" width="180" height="30" as="geometry" />
        </mxCell>
        <mxCell id="jsgp8Io5BWECslSWmgJ6-52" value="tblPayment" style="shape=table;startSize=30;container=1;collapsible=1;childLayout=tableLayout;fixedRows=1;rowLines=0;fontStyle=1;align=center;resizeLast=1;" vertex="1" parent="1">
          <mxGeometry x="490" y="880" width="180" height="160" as="geometry" />
        </mxCell>
        <mxCell id="jsgp8Io5BWECslSWmgJ6-53" value="" style="shape=partialRectangle;collapsible=0;dropTarget=0;pointerEvents=0;fillColor=none;top=0;left=0;bottom=1;right=0;points=[[0,0.5],[1,0.5]];portConstraint=eastwest;" vertex="1" parent="jsgp8Io5BWECslSWmgJ6-52">
          <mxGeometry y="30" width="180" height="30" as="geometry" />
        </mxCell>
        <mxCell id="jsgp8Io5BWECslSWmgJ6-54" value="PK" style="shape=partialRectangle;connectable=0;fillColor=none;top=0;left=0;bottom=0;right=0;fontStyle=1;overflow=hidden;" vertex="1" parent="jsgp8Io5BWECslSWmgJ6-53">
          <mxGeometry width="30" height="30" as="geometry" />
        </mxCell>
        <mxCell id="jsgp8Io5BWECslSWmgJ6-55" value="paymentID" style="shape=partialRectangle;connectable=0;fillColor=none;top=0;left=0;bottom=0;right=0;align=left;spacingLeft=6;fontStyle=5;overflow=hidden;" vertex="1" parent="jsgp8Io5BWECslSWmgJ6-53">
          <mxGeometry x="30" width="150" height="30" as="geometry" />
        </mxCell>
        <mxCell id="jsgp8Io5BWECslSWmgJ6-56" value="" style="shape=partialRectangle;collapsible=0;dropTarget=0;pointerEvents=0;fillColor=none;top=0;left=0;bottom=0;right=0;points=[[0,0.5],[1,0.5]];portConstraint=eastwest;" vertex="1" parent="jsgp8Io5BWECslSWmgJ6-52">
          <mxGeometry y="60" width="180" height="30" as="geometry" />
        </mxCell>
        <mxCell id="jsgp8Io5BWECslSWmgJ6-57" value="" style="shape=partialRectangle;connectable=0;fillColor=none;top=0;left=0;bottom=0;right=0;editable=1;overflow=hidden;" vertex="1" parent="jsgp8Io5BWECslSWmgJ6-56">
          <mxGeometry width="30" height="30" as="geometry" />
        </mxCell>
        <mxCell id="jsgp8Io5BWECslSWmgJ6-58" value="Row 1" style="shape=partialRectangle;connectable=0;fillColor=none;top=0;left=0;bottom=0;right=0;align=left;spacingLeft=6;overflow=hidden;" vertex="1" parent="jsgp8Io5BWECslSWmgJ6-56">
          <mxGeometry x="30" width="150" height="30" as="geometry" />
        </mxCell>
        <mxCell id="jsgp8Io5BWECslSWmgJ6-59" value="" style="shape=partialRectangle;collapsible=0;dropTarget=0;pointerEvents=0;fillColor=none;top=0;left=0;bottom=0;right=0;points=[[0,0.5],[1,0.5]];portConstraint=eastwest;" vertex="1" parent="jsgp8Io5BWECslSWmgJ6-52">
          <mxGeometry y="90" width="180" height="30" as="geometry" />
        </mxCell>
        <mxCell id="jsgp8Io5BWECslSWmgJ6-60" value="" style="shape=partialRectangle;connectable=0;fillColor=none;top=0;left=0;bottom=0;right=0;editable=1;overflow=hidden;" vertex="1" parent="jsgp8Io5BWECslSWmgJ6-59">
          <mxGeometry width="30" height="30" as="geometry" />
        </mxCell>
        <mxCell id="jsgp8Io5BWECslSWmgJ6-61" value="Row 2" style="shape=partialRectangle;connectable=0;fillColor=none;top=0;left=0;bottom=0;right=0;align=left;spacingLeft=6;overflow=hidden;" vertex="1" parent="jsgp8Io5BWECslSWmgJ6-59">
          <mxGeometry x="30" width="150" height="30" as="geometry" />
        </mxCell>
        <mxCell id="jsgp8Io5BWECslSWmgJ6-62" value="" style="shape=partialRectangle;collapsible=0;dropTarget=0;pointerEvents=0;fillColor=none;top=0;left=0;bottom=0;right=0;points=[[0,0.5],[1,0.5]];portConstraint=eastwest;" vertex="1" parent="jsgp8Io5BWECslSWmgJ6-52">
          <mxGeometry y="120" width="180" height="30" as="geometry" />
        </mxCell>
        <mxCell id="jsgp8Io5BWECslSWmgJ6-63" value="" style="shape=partialRectangle;connectable=0;fillColor=none;top=0;left=0;bottom=0;right=0;editable=1;overflow=hidden;" vertex="1" parent="jsgp8Io5BWECslSWmgJ6-62">
          <mxGeometry width="30" height="30" as="geometry" />
        </mxCell>
        <mxCell id="jsgp8Io5BWECslSWmgJ6-64" value="Row 3" style="shape=partialRectangle;connectable=0;fillColor=none;top=0;left=0;bottom=0;right=0;align=left;spacingLeft=6;overflow=hidden;" vertex="1" parent="jsgp8Io5BWECslSWmgJ6-62">
          <mxGeometry x="30" width="150" height="30" as="geometry" />
        </mxCell>
        <mxCell id="jsgp8Io5BWECslSWmgJ6-72" value="" style="edgeStyle=entityRelationEdgeStyle;fontSize=12;html=1;endArrow=ERoneToMany;exitX=1.019;exitY=0.767;exitDx=0;exitDy=0;exitPerimeter=0;entryX=0;entryY=0.5;entryDx=0;entryDy=0;" edge="1" parent="1" source="jsgp8Io5BWECslSWmgJ6-43" target="jsgp8Io5BWECslSWmgJ6-34">
          <mxGeometry width="100" height="100" relative="1" as="geometry">
            <mxPoint x="290" y="240" as="sourcePoint" />
            <mxPoint x="390" y="140" as="targetPoint" />
          </mxGeometry>
        </mxCell>
        <mxCell id="jsgp8Io5BWECslSWmgJ6-86" value="tblProduct" style="shape=table;startSize=30;container=1;collapsible=1;childLayout=tableLayout;fixedRows=1;rowLines=0;fontStyle=1;align=center;resizeLast=1;" vertex="1" parent="1">
          <mxGeometry x="375" y="360" width="225" height="340" as="geometry" />
        </mxCell>
        <mxCell id="jsgp8Io5BWECslSWmgJ6-87" value="" style="shape=partialRectangle;collapsible=0;dropTarget=0;pointerEvents=0;fillColor=none;top=0;left=0;bottom=1;right=0;points=[[0,0.5],[1,0.5]];portConstraint=eastwest;" vertex="1" parent="jsgp8Io5BWECslSWmgJ6-86">
          <mxGeometry y="30" width="225" height="30" as="geometry" />
        </mxCell>
        <mxCell id="jsgp8Io5BWECslSWmgJ6-88" value="PK" style="shape=partialRectangle;connectable=0;fillColor=none;top=0;left=0;bottom=0;right=0;fontStyle=1;overflow=hidden;" vertex="1" parent="jsgp8Io5BWECslSWmgJ6-87">
          <mxGeometry width="30" height="30" as="geometry" />
        </mxCell>
        <mxCell id="jsgp8Io5BWECslSWmgJ6-89" value="prodID " style="shape=partialRectangle;connectable=0;fillColor=none;top=0;left=0;bottom=0;right=0;align=left;spacingLeft=6;fontStyle=5;overflow=hidden;" vertex="1" parent="jsgp8Io5BWECslSWmgJ6-87">
          <mxGeometry x="30" width="195" height="30" as="geometry" />
        </mxCell>
        <mxCell id="jsgp8Io5BWECslSWmgJ6-90" value="" style="shape=partialRectangle;collapsible=0;dropTarget=0;pointerEvents=0;fillColor=none;top=0;left=0;bottom=0;right=0;points=[[0,0.5],[1,0.5]];portConstraint=eastwest;" vertex="1" parent="jsgp8Io5BWECslSWmgJ6-86">
          <mxGeometry y="60" width="225" height="30" as="geometry" />
        </mxCell>
        <mxCell id="jsgp8Io5BWECslSWmgJ6-91" value="" style="shape=partialRectangle;connectable=0;fillColor=none;top=0;left=0;bottom=0;right=0;editable=1;overflow=hidden;" vertex="1" parent="jsgp8Io5BWECslSWmgJ6-90">
          <mxGeometry width="30" height="30" as="geometry" />
        </mxCell>
        <mxCell id="jsgp8Io5BWECslSWmgJ6-92" value="categoryID INT(11)" style="shape=partialRectangle;connectable=0;fillColor=none;top=0;left=0;bottom=0;right=0;align=left;spacingLeft=6;overflow=hidden;" vertex="1" parent="jsgp8Io5BWECslSWmgJ6-90">
          <mxGeometry x="30" width="195" height="30" as="geometry" />
        </mxCell>
        <mxCell id="jsgp8Io5BWECslSWmgJ6-99" value="" style="shape=partialRectangle;collapsible=0;dropTarget=0;pointerEvents=0;fillColor=none;top=0;left=0;bottom=0;right=0;points=[[0,0.5],[1,0.5]];portConstraint=eastwest;" vertex="1" parent="jsgp8Io5BWECslSWmgJ6-86">
          <mxGeometry y="90" width="225" height="30" as="geometry" />
        </mxCell>
        <mxCell id="jsgp8Io5BWECslSWmgJ6-100" value="" style="shape=partialRectangle;connectable=0;fillColor=none;top=0;left=0;bottom=0;right=0;editable=1;overflow=hidden;" vertex="1" parent="jsgp8Io5BWECslSWmgJ6-99">
          <mxGeometry width="30" height="30" as="geometry" />
        </mxCell>
        <mxCell id="jsgp8Io5BWECslSWmgJ6-101" value="userID INT(11)" style="shape=partialRectangle;connectable=0;fillColor=none;top=0;left=0;bottom=0;right=0;align=left;spacingLeft=6;overflow=hidden;" vertex="1" parent="jsgp8Io5BWECslSWmgJ6-99">
          <mxGeometry x="30" width="195" height="30" as="geometry" />
        </mxCell>
        <mxCell id="jsgp8Io5BWECslSWmgJ6-93" value="" style="shape=partialRectangle;collapsible=0;dropTarget=0;pointerEvents=0;fillColor=none;top=0;left=0;bottom=0;right=0;points=[[0,0.5],[1,0.5]];portConstraint=eastwest;" vertex="1" parent="jsgp8Io5BWECslSWmgJ6-86">
          <mxGeometry y="120" width="225" height="30" as="geometry" />
        </mxCell>
        <mxCell id="jsgp8Io5BWECslSWmgJ6-94" value="" style="shape=partialRectangle;connectable=0;fillColor=none;top=0;left=0;bottom=0;right=0;editable=1;overflow=hidden;" vertex="1" parent="jsgp8Io5BWECslSWmgJ6-93">
          <mxGeometry width="30" height="30" as="geometry" />
        </mxCell>
        <mxCell id="jsgp8Io5BWECslSWmgJ6-95" value="prodName VARCHAR (50)" style="shape=partialRectangle;connectable=0;fillColor=none;top=0;left=0;bottom=0;right=0;align=left;spacingLeft=6;overflow=hidden;" vertex="1" parent="jsgp8Io5BWECslSWmgJ6-93">
          <mxGeometry x="30" width="195" height="30" as="geometry" />
        </mxCell>
        <mxCell id="jsgp8Io5BWECslSWmgJ6-102" value="" style="shape=partialRectangle;collapsible=0;dropTarget=0;pointerEvents=0;fillColor=none;top=0;left=0;bottom=0;right=0;points=[[0,0.5],[1,0.5]];portConstraint=eastwest;" vertex="1" parent="jsgp8Io5BWECslSWmgJ6-86">
          <mxGeometry y="150" width="225" height="30" as="geometry" />
        </mxCell>
        <mxCell id="jsgp8Io5BWECslSWmgJ6-103" value="" style="shape=partialRectangle;connectable=0;fillColor=none;top=0;left=0;bottom=0;right=0;editable=1;overflow=hidden;" vertex="1" parent="jsgp8Io5BWECslSWmgJ6-102">
          <mxGeometry width="30" height="30" as="geometry" />
        </mxCell>
        <mxCell id="jsgp8Io5BWECslSWmgJ6-104" value="prodDescription VARCHAR (500)" style="shape=partialRectangle;connectable=0;fillColor=none;top=0;left=0;bottom=0;right=0;align=left;spacingLeft=6;overflow=hidden;" vertex="1" parent="jsgp8Io5BWECslSWmgJ6-102">
          <mxGeometry x="30" width="195" height="30" as="geometry" />
        </mxCell>
        <mxCell id="jsgp8Io5BWECslSWmgJ6-96" value="" style="shape=partialRectangle;collapsible=0;dropTarget=0;pointerEvents=0;fillColor=none;top=0;left=0;bottom=0;right=0;points=[[0,0.5],[1,0.5]];portConstraint=eastwest;" vertex="1" parent="jsgp8Io5BWECslSWmgJ6-86">
          <mxGeometry y="180" width="225" height="30" as="geometry" />
        </mxCell>
        <mxCell id="jsgp8Io5BWECslSWmgJ6-97" value="" style="shape=partialRectangle;connectable=0;fillColor=none;top=0;left=0;bottom=0;right=0;editable=1;overflow=hidden;" vertex="1" parent="jsgp8Io5BWECslSWmgJ6-96">
          <mxGeometry width="30" height="30" as="geometry" />
        </mxCell>
        <mxCell id="jsgp8Io5BWECslSWmgJ6-98" value="prodPrice FLOAT" style="shape=partialRectangle;connectable=0;fillColor=none;top=0;left=0;bottom=0;right=0;align=left;spacingLeft=6;overflow=hidden;" vertex="1" parent="jsgp8Io5BWECslSWmgJ6-96">
          <mxGeometry x="30" width="195" height="30" as="geometry" />
        </mxCell>
        <mxCell id="jsgp8Io5BWECslSWmgJ6-105" value="" style="shape=partialRectangle;collapsible=0;dropTarget=0;pointerEvents=0;fillColor=none;top=0;left=0;bottom=0;right=0;points=[[0,0.5],[1,0.5]];portConstraint=eastwest;" vertex="1" parent="jsgp8Io5BWECslSWmgJ6-86">
          <mxGeometry y="210" width="225" height="30" as="geometry" />
        </mxCell>
        <mxCell id="jsgp8Io5BWECslSWmgJ6-106" value="" style="shape=partialRectangle;connectable=0;fillColor=none;top=0;left=0;bottom=0;right=0;editable=1;overflow=hidden;" vertex="1" parent="jsgp8Io5BWECslSWmgJ6-105">
          <mxGeometry width="30" height="30" as="geometry" />
        </mxCell>
        <mxCell id="jsgp8Io5BWECslSWmgJ6-107" value="prodRange FLOAT" style="shape=partialRectangle;connectable=0;fillColor=none;top=0;left=0;bottom=0;right=0;align=left;spacingLeft=6;overflow=hidden;" vertex="1" parent="jsgp8Io5BWECslSWmgJ6-105">
          <mxGeometry x="30" width="195" height="30" as="geometry" />
        </mxCell>
        <mxCell id="jsgp8Io5BWECslSWmgJ6-108" value="" style="shape=partialRectangle;collapsible=0;dropTarget=0;pointerEvents=0;fillColor=none;top=0;left=0;bottom=0;right=0;points=[[0,0.5],[1,0.5]];portConstraint=eastwest;" vertex="1" parent="jsgp8Io5BWECslSWmgJ6-86">
          <mxGeometry y="240" width="225" height="30" as="geometry" />
        </mxCell>
        <mxCell id="jsgp8Io5BWECslSWmgJ6-109" value="" style="shape=partialRectangle;connectable=0;fillColor=none;top=0;left=0;bottom=0;right=0;editable=1;overflow=hidden;" vertex="1" parent="jsgp8Io5BWECslSWmgJ6-108">
          <mxGeometry width="30" height="30" as="geometry" />
        </mxCell>
        <mxCell id="jsgp8Io5BWECslSWmgJ6-110" value="prodLocation geography" style="shape=partialRectangle;connectable=0;fillColor=none;top=0;left=0;bottom=0;right=0;align=left;spacingLeft=6;overflow=hidden;" vertex="1" parent="jsgp8Io5BWECslSWmgJ6-108">
          <mxGeometry x="30" width="195" height="30" as="geometry" />
        </mxCell>
        <mxCell id="jsgp8Io5BWECslSWmgJ6-111" value="" style="shape=partialRectangle;collapsible=0;dropTarget=0;pointerEvents=0;fillColor=none;top=0;left=0;bottom=0;right=0;points=[[0,0.5],[1,0.5]];portConstraint=eastwest;" vertex="1" parent="jsgp8Io5BWECslSWmgJ6-86">
          <mxGeometry y="270" width="225" height="30" as="geometry" />
        </mxCell>
        <mxCell id="jsgp8Io5BWECslSWmgJ6-112" value="" style="shape=partialRectangle;connectable=0;fillColor=none;top=0;left=0;bottom=0;right=0;editable=1;overflow=hidden;" vertex="1" parent="jsgp8Io5BWECslSWmgJ6-111">
          <mxGeometry width="30" height="30" as="geometry" />
        </mxCell>
        <mxCell id="jsgp8Io5BWECslSWmgJ6-113" value="prodLive BOOLEAN" style="shape=partialRectangle;connectable=0;fillColor=none;top=0;left=0;bottom=0;right=0;align=left;spacingLeft=6;overflow=hidden;" vertex="1" parent="jsgp8Io5BWECslSWmgJ6-111">
          <mxGeometry x="30" width="195" height="30" as="geometry" />
        </mxCell>
        <mxCell id="jsgp8Io5BWECslSWmgJ6-223" value="" style="shape=partialRectangle;collapsible=0;dropTarget=0;pointerEvents=0;fillColor=none;top=0;left=0;bottom=0;right=0;points=[[0,0.5],[1,0.5]];portConstraint=eastwest;" vertex="1" parent="jsgp8Io5BWECslSWmgJ6-86">
          <mxGeometry y="300" width="225" height="30" as="geometry" />
        </mxCell>
        <mxCell id="jsgp8Io5BWECslSWmgJ6-224" value="" style="shape=partialRectangle;connectable=0;fillColor=none;top=0;left=0;bottom=0;right=0;editable=1;overflow=hidden;" vertex="1" parent="jsgp8Io5BWECslSWmgJ6-223">
          <mxGeometry width="30" height="30" as="geometry" />
        </mxCell>
        <mxCell id="jsgp8Io5BWECslSWmgJ6-225" value="servTime INT(11)" style="shape=partialRectangle;connectable=0;fillColor=none;top=0;left=0;bottom=0;right=0;align=left;spacingLeft=6;overflow=hidden;" vertex="1" parent="jsgp8Io5BWECslSWmgJ6-223">
          <mxGeometry x="30" width="195" height="30" as="geometry" />
        </mxCell>
        <mxCell id="jsgp8Io5BWECslSWmgJ6-114" value="" style="edgeStyle=entityRelationEdgeStyle;fontSize=12;html=1;endArrow=ERoneToMany;entryX=0.458;entryY=0.003;entryDx=0;entryDy=0;entryPerimeter=0;" edge="1" parent="1" source="jsgp8Io5BWECslSWmgJ6-49" target="jsgp8Io5BWECslSWmgJ6-86">
          <mxGeometry width="100" height="100" relative="1" as="geometry">
            <mxPoint x="150" y="309" as="sourcePoint" />
            <mxPoint x="200" y="320" as="targetPoint" />
          </mxGeometry>
        </mxCell>
        <mxCell id="jsgp8Io5BWECslSWmgJ6-115" value="tblCategory" style="shape=table;startSize=30;container=1;collapsible=1;childLayout=tableLayout;fixedRows=1;rowLines=0;fontStyle=1;align=center;resizeLast=1;" vertex="1" parent="1">
          <mxGeometry x="650" y="380" width="190" height="160" as="geometry" />
        </mxCell>
        <mxCell id="jsgp8Io5BWECslSWmgJ6-116" value="" style="shape=partialRectangle;collapsible=0;dropTarget=0;pointerEvents=0;fillColor=none;top=0;left=0;bottom=1;right=0;points=[[0,0.5],[1,0.5]];portConstraint=eastwest;" vertex="1" parent="jsgp8Io5BWECslSWmgJ6-115">
          <mxGeometry y="30" width="190" height="30" as="geometry" />
        </mxCell>
        <mxCell id="jsgp8Io5BWECslSWmgJ6-117" value="PK" style="shape=partialRectangle;connectable=0;fillColor=none;top=0;left=0;bottom=0;right=0;fontStyle=1;overflow=hidden;" vertex="1" parent="jsgp8Io5BWECslSWmgJ6-116">
          <mxGeometry width="30" height="30" as="geometry" />
        </mxCell>
        <mxCell id="jsgp8Io5BWECslSWmgJ6-118" value="categoryID" style="shape=partialRectangle;connectable=0;fillColor=none;top=0;left=0;bottom=0;right=0;align=left;spacingLeft=6;fontStyle=5;overflow=hidden;" vertex="1" parent="jsgp8Io5BWECslSWmgJ6-116">
          <mxGeometry x="30" width="160" height="30" as="geometry" />
        </mxCell>
        <mxCell id="jsgp8Io5BWECslSWmgJ6-119" value="" style="shape=partialRectangle;collapsible=0;dropTarget=0;pointerEvents=0;fillColor=none;top=0;left=0;bottom=0;right=0;points=[[0,0.5],[1,0.5]];portConstraint=eastwest;" vertex="1" parent="jsgp8Io5BWECslSWmgJ6-115">
          <mxGeometry y="60" width="190" height="30" as="geometry" />
        </mxCell>
        <mxCell id="jsgp8Io5BWECslSWmgJ6-120" value="" style="shape=partialRectangle;connectable=0;fillColor=none;top=0;left=0;bottom=0;right=0;editable=1;overflow=hidden;" vertex="1" parent="jsgp8Io5BWECslSWmgJ6-119">
          <mxGeometry width="30" height="30" as="geometry" />
        </mxCell>
        <mxCell id="jsgp8Io5BWECslSWmgJ6-121" value="catName VARCHAR(50)" style="shape=partialRectangle;connectable=0;fillColor=none;top=0;left=0;bottom=0;right=0;align=left;spacingLeft=6;overflow=hidden;" vertex="1" parent="jsgp8Io5BWECslSWmgJ6-119">
          <mxGeometry x="30" width="160" height="30" as="geometry" />
        </mxCell>
        <mxCell id="jsgp8Io5BWECslSWmgJ6-122" value="" style="shape=partialRectangle;collapsible=0;dropTarget=0;pointerEvents=0;fillColor=none;top=0;left=0;bottom=0;right=0;points=[[0,0.5],[1,0.5]];portConstraint=eastwest;" vertex="1" parent="jsgp8Io5BWECslSWmgJ6-115">
          <mxGeometry y="90" width="190" height="30" as="geometry" />
        </mxCell>
        <mxCell id="jsgp8Io5BWECslSWmgJ6-123" value="" style="shape=partialRectangle;connectable=0;fillColor=none;top=0;left=0;bottom=0;right=0;editable=1;overflow=hidden;" vertex="1" parent="jsgp8Io5BWECslSWmgJ6-122">
          <mxGeometry width="30" height="30" as="geometry" />
        </mxCell>
        <mxCell id="jsgp8Io5BWECslSWmgJ6-124" value="catSumProducts  INT(1000)" style="shape=partialRectangle;connectable=0;fillColor=none;top=0;left=0;bottom=0;right=0;align=left;spacingLeft=6;overflow=hidden;" vertex="1" parent="jsgp8Io5BWECslSWmgJ6-122">
          <mxGeometry x="30" width="160" height="30" as="geometry" />
        </mxCell>
        <mxCell id="jsgp8Io5BWECslSWmgJ6-125" value="" style="shape=partialRectangle;collapsible=0;dropTarget=0;pointerEvents=0;fillColor=none;top=0;left=0;bottom=0;right=0;points=[[0,0.5],[1,0.5]];portConstraint=eastwest;" vertex="1" parent="jsgp8Io5BWECslSWmgJ6-115">
          <mxGeometry y="120" width="190" height="30" as="geometry" />
        </mxCell>
        <mxCell id="jsgp8Io5BWECslSWmgJ6-126" value="" style="shape=partialRectangle;connectable=0;fillColor=none;top=0;left=0;bottom=0;right=0;editable=1;overflow=hidden;" vertex="1" parent="jsgp8Io5BWECslSWmgJ6-125">
          <mxGeometry width="30" height="30" as="geometry" />
        </mxCell>
        <mxCell id="jsgp8Io5BWECslSWmgJ6-127" value="" style="shape=partialRectangle;connectable=0;fillColor=none;top=0;left=0;bottom=0;right=0;align=left;spacingLeft=6;overflow=hidden;" vertex="1" parent="jsgp8Io5BWECslSWmgJ6-125">
          <mxGeometry x="30" width="160" height="30" as="geometry" />
        </mxCell>
        <mxCell id="jsgp8Io5BWECslSWmgJ6-128" value="" style="edgeStyle=entityRelationEdgeStyle;fontSize=12;html=1;endArrow=ERoneToMany;entryX=1;entryY=0.5;entryDx=0;entryDy=0;exitX=0;exitY=0.5;exitDx=0;exitDy=0;" edge="1" parent="1" source="jsgp8Io5BWECslSWmgJ6-122" target="jsgp8Io5BWECslSWmgJ6-102">
          <mxGeometry width="100" height="100" relative="1" as="geometry">
            <mxPoint x="470" y="520" as="sourcePoint" />
            <mxPoint x="280" y="450" as="targetPoint" />
          </mxGeometry>
        </mxCell>
        <mxCell id="jsgp8Io5BWECslSWmgJ6-130" value="tblTier" style="shape=table;startSize=30;container=1;collapsible=1;childLayout=tableLayout;fixedRows=1;rowLines=0;fontStyle=1;align=center;resizeLast=1;" vertex="1" parent="1">
          <mxGeometry x="130" y="370" width="210" height="220" as="geometry" />
        </mxCell>
        <mxCell id="jsgp8Io5BWECslSWmgJ6-131" value="" style="shape=partialRectangle;collapsible=0;dropTarget=0;pointerEvents=0;fillColor=none;top=0;left=0;bottom=1;right=0;points=[[0,0.5],[1,0.5]];portConstraint=eastwest;" vertex="1" parent="jsgp8Io5BWECslSWmgJ6-130">
          <mxGeometry y="30" width="210" height="30" as="geometry" />
        </mxCell>
        <mxCell id="jsgp8Io5BWECslSWmgJ6-132" value="PK" style="shape=partialRectangle;connectable=0;fillColor=none;top=0;left=0;bottom=0;right=0;fontStyle=1;overflow=hidden;" vertex="1" parent="jsgp8Io5BWECslSWmgJ6-131">
          <mxGeometry width="30" height="30" as="geometry" />
        </mxCell>
        <mxCell id="jsgp8Io5BWECslSWmgJ6-133" value="tierID" style="shape=partialRectangle;connectable=0;fillColor=none;top=0;left=0;bottom=0;right=0;align=left;spacingLeft=6;fontStyle=5;overflow=hidden;" vertex="1" parent="jsgp8Io5BWECslSWmgJ6-131">
          <mxGeometry x="30" width="180" height="30" as="geometry" />
        </mxCell>
        <mxCell id="jsgp8Io5BWECslSWmgJ6-134" value="" style="shape=partialRectangle;collapsible=0;dropTarget=0;pointerEvents=0;fillColor=none;top=0;left=0;bottom=0;right=0;points=[[0,0.5],[1,0.5]];portConstraint=eastwest;" vertex="1" parent="jsgp8Io5BWECslSWmgJ6-130">
          <mxGeometry y="60" width="210" height="30" as="geometry" />
        </mxCell>
        <mxCell id="jsgp8Io5BWECslSWmgJ6-135" value="" style="shape=partialRectangle;connectable=0;fillColor=none;top=0;left=0;bottom=0;right=0;editable=1;overflow=hidden;" vertex="1" parent="jsgp8Io5BWECslSWmgJ6-134">
          <mxGeometry width="30" height="30" as="geometry" />
        </mxCell>
        <mxCell id="jsgp8Io5BWECslSWmgJ6-136" value="prodID INT(11)" style="shape=partialRectangle;connectable=0;fillColor=none;top=0;left=0;bottom=0;right=0;align=left;spacingLeft=6;overflow=hidden;" vertex="1" parent="jsgp8Io5BWECslSWmgJ6-134">
          <mxGeometry x="30" width="180" height="30" as="geometry" />
        </mxCell>
        <mxCell id="jsgp8Io5BWECslSWmgJ6-137" value="" style="shape=partialRectangle;collapsible=0;dropTarget=0;pointerEvents=0;fillColor=none;top=0;left=0;bottom=0;right=0;points=[[0,0.5],[1,0.5]];portConstraint=eastwest;" vertex="1" parent="jsgp8Io5BWECslSWmgJ6-130">
          <mxGeometry y="90" width="210" height="30" as="geometry" />
        </mxCell>
        <mxCell id="jsgp8Io5BWECslSWmgJ6-138" value="" style="shape=partialRectangle;connectable=0;fillColor=none;top=0;left=0;bottom=0;right=0;editable=1;overflow=hidden;" vertex="1" parent="jsgp8Io5BWECslSWmgJ6-137">
          <mxGeometry width="30" height="30" as="geometry" />
        </mxCell>
        <mxCell id="jsgp8Io5BWECslSWmgJ6-139" value="userID INT(11)" style="shape=partialRectangle;connectable=0;fillColor=none;top=0;left=0;bottom=0;right=0;align=left;spacingLeft=6;overflow=hidden;" vertex="1" parent="jsgp8Io5BWECslSWmgJ6-137">
          <mxGeometry x="30" width="180" height="30" as="geometry" />
        </mxCell>
        <mxCell id="jsgp8Io5BWECslSWmgJ6-140" value="" style="shape=partialRectangle;collapsible=0;dropTarget=0;pointerEvents=0;fillColor=none;top=0;left=0;bottom=0;right=0;points=[[0,0.5],[1,0.5]];portConstraint=eastwest;" vertex="1" parent="jsgp8Io5BWECslSWmgJ6-130">
          <mxGeometry y="120" width="210" height="30" as="geometry" />
        </mxCell>
        <mxCell id="jsgp8Io5BWECslSWmgJ6-141" value="" style="shape=partialRectangle;connectable=0;fillColor=none;top=0;left=0;bottom=0;right=0;editable=1;overflow=hidden;" vertex="1" parent="jsgp8Io5BWECslSWmgJ6-140">
          <mxGeometry width="30" height="30" as="geometry" />
        </mxCell>
        <mxCell id="jsgp8Io5BWECslSWmgJ6-142" value="tierName VARCHAR(50)" style="shape=partialRectangle;connectable=0;fillColor=none;top=0;left=0;bottom=0;right=0;align=left;spacingLeft=6;overflow=hidden;" vertex="1" parent="jsgp8Io5BWECslSWmgJ6-140">
          <mxGeometry x="30" width="180" height="30" as="geometry" />
        </mxCell>
        <mxCell id="jsgp8Io5BWECslSWmgJ6-143" value="" style="shape=partialRectangle;collapsible=0;dropTarget=0;pointerEvents=0;fillColor=none;top=0;left=0;bottom=0;right=0;points=[[0,0.5],[1,0.5]];portConstraint=eastwest;" vertex="1" parent="jsgp8Io5BWECslSWmgJ6-130">
          <mxGeometry y="150" width="210" height="30" as="geometry" />
        </mxCell>
        <mxCell id="jsgp8Io5BWECslSWmgJ6-144" value="" style="shape=partialRectangle;connectable=0;fillColor=none;top=0;left=0;bottom=0;right=0;editable=1;overflow=hidden;" vertex="1" parent="jsgp8Io5BWECslSWmgJ6-143">
          <mxGeometry width="30" height="30" as="geometry" />
        </mxCell>
        <mxCell id="jsgp8Io5BWECslSWmgJ6-145" value="tierDescription VARCHAR(500)" style="shape=partialRectangle;connectable=0;fillColor=none;top=0;left=0;bottom=0;right=0;align=left;spacingLeft=6;overflow=hidden;" vertex="1" parent="jsgp8Io5BWECslSWmgJ6-143">
          <mxGeometry x="30" width="180" height="30" as="geometry" />
        </mxCell>
        <mxCell id="jsgp8Io5BWECslSWmgJ6-146" value="" style="shape=partialRectangle;collapsible=0;dropTarget=0;pointerEvents=0;fillColor=none;top=0;left=0;bottom=0;right=0;points=[[0,0.5],[1,0.5]];portConstraint=eastwest;" vertex="1" parent="jsgp8Io5BWECslSWmgJ6-130">
          <mxGeometry y="180" width="210" height="30" as="geometry" />
        </mxCell>
        <mxCell id="jsgp8Io5BWECslSWmgJ6-147" value="" style="shape=partialRectangle;connectable=0;fillColor=none;top=0;left=0;bottom=0;right=0;editable=1;overflow=hidden;" vertex="1" parent="jsgp8Io5BWECslSWmgJ6-146">
          <mxGeometry width="30" height="30" as="geometry" />
        </mxCell>
        <mxCell id="jsgp8Io5BWECslSWmgJ6-148" value="tierPrice FLOAT" style="shape=partialRectangle;connectable=0;fillColor=none;top=0;left=0;bottom=0;right=0;align=left;spacingLeft=6;overflow=hidden;" vertex="1" parent="jsgp8Io5BWECslSWmgJ6-146">
          <mxGeometry x="30" width="180" height="30" as="geometry" />
        </mxCell>
        <mxCell id="jsgp8Io5BWECslSWmgJ6-152" value="" style="edgeStyle=entityRelationEdgeStyle;fontSize=12;html=1;endArrow=ERoneToMany;entryX=0;entryY=0.5;entryDx=0;entryDy=0;" edge="1" parent="1" target="jsgp8Io5BWECslSWmgJ6-131">
          <mxGeometry width="100" height="100" relative="1" as="geometry">
            <mxPoint x="40" y="310" as="sourcePoint" />
            <mxPoint x="470" y="460" as="targetPoint" />
          </mxGeometry>
        </mxCell>
        <mxCell id="jsgp8Io5BWECslSWmgJ6-156" value="" style="edgeStyle=entityRelationEdgeStyle;fontSize=12;html=1;endArrow=ERoneToMany;exitX=1;exitY=0.5;exitDx=0;exitDy=0;" edge="1" parent="1" source="jsgp8Io5BWECslSWmgJ6-146" target="jsgp8Io5BWECslSWmgJ6-93">
          <mxGeometry width="100" height="100" relative="1" as="geometry">
            <mxPoint x="370" y="560" as="sourcePoint" />
            <mxPoint x="470" y="460" as="targetPoint" />
          </mxGeometry>
        </mxCell>
        <mxCell id="jsgp8Io5BWECslSWmgJ6-157" value="tblRviews" style="shape=table;startSize=30;container=1;collapsible=1;childLayout=tableLayout;fixedRows=1;rowLines=0;fontStyle=1;align=center;resizeLast=1;" vertex="1" parent="1">
          <mxGeometry x="170" y="660" width="185" height="190" as="geometry" />
        </mxCell>
        <mxCell id="jsgp8Io5BWECslSWmgJ6-158" value="" style="shape=partialRectangle;collapsible=0;dropTarget=0;pointerEvents=0;fillColor=none;top=0;left=0;bottom=1;right=0;points=[[0,0.5],[1,0.5]];portConstraint=eastwest;" vertex="1" parent="jsgp8Io5BWECslSWmgJ6-157">
          <mxGeometry y="30" width="185" height="30" as="geometry" />
        </mxCell>
        <mxCell id="jsgp8Io5BWECslSWmgJ6-159" value="PK" style="shape=partialRectangle;connectable=0;fillColor=none;top=0;left=0;bottom=0;right=0;fontStyle=1;overflow=hidden;" vertex="1" parent="jsgp8Io5BWECslSWmgJ6-158">
          <mxGeometry width="30" height="30" as="geometry" />
        </mxCell>
        <mxCell id="jsgp8Io5BWECslSWmgJ6-160" value="reviewID" style="shape=partialRectangle;connectable=0;fillColor=none;top=0;left=0;bottom=0;right=0;align=left;spacingLeft=6;fontStyle=5;overflow=hidden;" vertex="1" parent="jsgp8Io5BWECslSWmgJ6-158">
          <mxGeometry x="30" width="155" height="30" as="geometry" />
        </mxCell>
        <mxCell id="jsgp8Io5BWECslSWmgJ6-161" value="" style="shape=partialRectangle;collapsible=0;dropTarget=0;pointerEvents=0;fillColor=none;top=0;left=0;bottom=0;right=0;points=[[0,0.5],[1,0.5]];portConstraint=eastwest;" vertex="1" parent="jsgp8Io5BWECslSWmgJ6-157">
          <mxGeometry y="60" width="185" height="30" as="geometry" />
        </mxCell>
        <mxCell id="jsgp8Io5BWECslSWmgJ6-162" value="" style="shape=partialRectangle;connectable=0;fillColor=none;top=0;left=0;bottom=0;right=0;editable=1;overflow=hidden;" vertex="1" parent="jsgp8Io5BWECslSWmgJ6-161">
          <mxGeometry width="30" height="30" as="geometry" />
        </mxCell>
        <mxCell id="jsgp8Io5BWECslSWmgJ6-163" value="userID INT(11)" style="shape=partialRectangle;connectable=0;fillColor=none;top=0;left=0;bottom=0;right=0;align=left;spacingLeft=6;overflow=hidden;" vertex="1" parent="jsgp8Io5BWECslSWmgJ6-161">
          <mxGeometry x="30" width="155" height="30" as="geometry" />
        </mxCell>
        <mxCell id="jsgp8Io5BWECslSWmgJ6-164" value="" style="shape=partialRectangle;collapsible=0;dropTarget=0;pointerEvents=0;fillColor=none;top=0;left=0;bottom=0;right=0;points=[[0,0.5],[1,0.5]];portConstraint=eastwest;" vertex="1" parent="jsgp8Io5BWECslSWmgJ6-157">
          <mxGeometry y="90" width="185" height="30" as="geometry" />
        </mxCell>
        <mxCell id="jsgp8Io5BWECslSWmgJ6-165" value="" style="shape=partialRectangle;connectable=0;fillColor=none;top=0;left=0;bottom=0;right=0;editable=1;overflow=hidden;" vertex="1" parent="jsgp8Io5BWECslSWmgJ6-164">
          <mxGeometry width="30" height="30" as="geometry" />
        </mxCell>
        <mxCell id="jsgp8Io5BWECslSWmgJ6-166" value="prodID INT(11)" style="shape=partialRectangle;connectable=0;fillColor=none;top=0;left=0;bottom=0;right=0;align=left;spacingLeft=6;overflow=hidden;" vertex="1" parent="jsgp8Io5BWECslSWmgJ6-164">
          <mxGeometry x="30" width="155" height="30" as="geometry" />
        </mxCell>
        <mxCell id="jsgp8Io5BWECslSWmgJ6-167" value="" style="shape=partialRectangle;collapsible=0;dropTarget=0;pointerEvents=0;fillColor=none;top=0;left=0;bottom=0;right=0;points=[[0,0.5],[1,0.5]];portConstraint=eastwest;" vertex="1" parent="jsgp8Io5BWECslSWmgJ6-157">
          <mxGeometry y="120" width="185" height="30" as="geometry" />
        </mxCell>
        <mxCell id="jsgp8Io5BWECslSWmgJ6-168" value="" style="shape=partialRectangle;connectable=0;fillColor=none;top=0;left=0;bottom=0;right=0;editable=1;overflow=hidden;" vertex="1" parent="jsgp8Io5BWECslSWmgJ6-167">
          <mxGeometry width="30" height="30" as="geometry" />
        </mxCell>
        <mxCell id="jsgp8Io5BWECslSWmgJ6-169" value="stars VARCHAR (5)" style="shape=partialRectangle;connectable=0;fillColor=none;top=0;left=0;bottom=0;right=0;align=left;spacingLeft=6;overflow=hidden;" vertex="1" parent="jsgp8Io5BWECslSWmgJ6-167">
          <mxGeometry x="30" width="155" height="30" as="geometry" />
        </mxCell>
        <mxCell id="jsgp8Io5BWECslSWmgJ6-170" value="" style="shape=partialRectangle;collapsible=0;dropTarget=0;pointerEvents=0;fillColor=none;top=0;left=0;bottom=0;right=0;points=[[0,0.5],[1,0.5]];portConstraint=eastwest;" vertex="1" parent="jsgp8Io5BWECslSWmgJ6-157">
          <mxGeometry y="150" width="185" height="30" as="geometry" />
        </mxCell>
        <mxCell id="jsgp8Io5BWECslSWmgJ6-171" value="" style="shape=partialRectangle;connectable=0;fillColor=none;top=0;left=0;bottom=0;right=0;editable=1;overflow=hidden;" vertex="1" parent="jsgp8Io5BWECslSWmgJ6-170">
          <mxGeometry width="30" height="30" as="geometry" />
        </mxCell>
        <mxCell id="jsgp8Io5BWECslSWmgJ6-172" value="feedback VARCHAR (500)" style="shape=partialRectangle;connectable=0;fillColor=none;top=0;left=0;bottom=0;right=0;align=left;spacingLeft=6;overflow=hidden;" vertex="1" parent="jsgp8Io5BWECslSWmgJ6-170">
          <mxGeometry x="30" width="155" height="30" as="geometry" />
        </mxCell>
        <mxCell id="jsgp8Io5BWECslSWmgJ6-173" value="" style="edgeStyle=entityRelationEdgeStyle;fontSize=12;html=1;endArrow=ERoneToMany;entryX=1;entryY=0.5;entryDx=0;entryDy=0;exitX=0.25;exitY=1;exitDx=0;exitDy=0;" edge="1" parent="1" source="jsgp8Io5BWECslSWmgJ6-86" target="jsgp8Io5BWECslSWmgJ6-167">
          <mxGeometry width="100" height="100" relative="1" as="geometry">
            <mxPoint x="410" y="680" as="sourcePoint" />
            <mxPoint x="470" y="560" as="targetPoint" />
          </mxGeometry>
        </mxCell>
        <mxCell id="jsgp8Io5BWECslSWmgJ6-175" value="" style="edgeStyle=entityRelationEdgeStyle;fontSize=12;html=1;endArrow=ERoneToMany;exitX=0.014;exitY=1;exitDx=0;exitDy=0;exitPerimeter=0;entryX=0;entryY=0.5;entryDx=0;entryDy=0;" edge="1" parent="1" source="jsgp8Io5BWECslSWmgJ6-49" target="jsgp8Io5BWECslSWmgJ6-164">
          <mxGeometry width="100" height="100" relative="1" as="geometry">
            <mxPoint x="370" y="660" as="sourcePoint" />
            <mxPoint x="470" y="560" as="targetPoint" />
          </mxGeometry>
        </mxCell>
        <mxCell id="jsgp8Io5BWECslSWmgJ6-176" value="tblOrder" style="shape=table;startSize=30;container=1;collapsible=1;childLayout=tableLayout;fixedRows=1;rowLines=0;fontStyle=1;align=center;resizeLast=1;" vertex="1" parent="1">
          <mxGeometry x="210" y="880" width="180" height="310" as="geometry" />
        </mxCell>
        <mxCell id="jsgp8Io5BWECslSWmgJ6-177" value="" style="shape=partialRectangle;collapsible=0;dropTarget=0;pointerEvents=0;fillColor=none;top=0;left=0;bottom=1;right=0;points=[[0,0.5],[1,0.5]];portConstraint=eastwest;" vertex="1" parent="jsgp8Io5BWECslSWmgJ6-176">
          <mxGeometry y="30" width="180" height="30" as="geometry" />
        </mxCell>
        <mxCell id="jsgp8Io5BWECslSWmgJ6-178" value="PK" style="shape=partialRectangle;connectable=0;fillColor=none;top=0;left=0;bottom=0;right=0;fontStyle=1;overflow=hidden;" vertex="1" parent="jsgp8Io5BWECslSWmgJ6-177">
          <mxGeometry width="30" height="30" as="geometry" />
        </mxCell>
        <mxCell id="jsgp8Io5BWECslSWmgJ6-179" value="orderID" style="shape=partialRectangle;connectable=0;fillColor=none;top=0;left=0;bottom=0;right=0;align=left;spacingLeft=6;fontStyle=5;overflow=hidden;" vertex="1" parent="jsgp8Io5BWECslSWmgJ6-177">
          <mxGeometry x="30" width="150" height="30" as="geometry" />
        </mxCell>
        <mxCell id="jsgp8Io5BWECslSWmgJ6-180" value="" style="shape=partialRectangle;collapsible=0;dropTarget=0;pointerEvents=0;fillColor=none;top=0;left=0;bottom=0;right=0;points=[[0,0.5],[1,0.5]];portConstraint=eastwest;" vertex="1" parent="jsgp8Io5BWECslSWmgJ6-176">
          <mxGeometry y="60" width="180" height="30" as="geometry" />
        </mxCell>
        <mxCell id="jsgp8Io5BWECslSWmgJ6-181" value="" style="shape=partialRectangle;connectable=0;fillColor=none;top=0;left=0;bottom=0;right=0;editable=1;overflow=hidden;" vertex="1" parent="jsgp8Io5BWECslSWmgJ6-180">
          <mxGeometry width="30" height="30" as="geometry" />
        </mxCell>
        <mxCell id="jsgp8Io5BWECslSWmgJ6-182" value="userID INT(11)" style="shape=partialRectangle;connectable=0;fillColor=none;top=0;left=0;bottom=0;right=0;align=left;spacingLeft=6;overflow=hidden;" vertex="1" parent="jsgp8Io5BWECslSWmgJ6-180">
          <mxGeometry x="30" width="150" height="30" as="geometry" />
        </mxCell>
        <mxCell id="jsgp8Io5BWECslSWmgJ6-183" value="" style="shape=partialRectangle;collapsible=0;dropTarget=0;pointerEvents=0;fillColor=none;top=0;left=0;bottom=0;right=0;points=[[0,0.5],[1,0.5]];portConstraint=eastwest;" vertex="1" parent="jsgp8Io5BWECslSWmgJ6-176">
          <mxGeometry y="90" width="180" height="30" as="geometry" />
        </mxCell>
        <mxCell id="jsgp8Io5BWECslSWmgJ6-184" value="" style="shape=partialRectangle;connectable=0;fillColor=none;top=0;left=0;bottom=0;right=0;editable=1;overflow=hidden;" vertex="1" parent="jsgp8Io5BWECslSWmgJ6-183">
          <mxGeometry width="30" height="30" as="geometry" />
        </mxCell>
        <mxCell id="jsgp8Io5BWECslSWmgJ6-185" value="prodID INT(11)" style="shape=partialRectangle;connectable=0;fillColor=none;top=0;left=0;bottom=0;right=0;align=left;spacingLeft=6;overflow=hidden;" vertex="1" parent="jsgp8Io5BWECslSWmgJ6-183">
          <mxGeometry x="30" width="150" height="30" as="geometry" />
        </mxCell>
        <mxCell id="jsgp8Io5BWECslSWmgJ6-186" value="" style="shape=partialRectangle;collapsible=0;dropTarget=0;pointerEvents=0;fillColor=none;top=0;left=0;bottom=0;right=0;points=[[0,0.5],[1,0.5]];portConstraint=eastwest;" vertex="1" parent="jsgp8Io5BWECslSWmgJ6-176">
          <mxGeometry y="120" width="180" height="30" as="geometry" />
        </mxCell>
        <mxCell id="jsgp8Io5BWECslSWmgJ6-187" value="" style="shape=partialRectangle;connectable=0;fillColor=none;top=0;left=0;bottom=0;right=0;editable=1;overflow=hidden;" vertex="1" parent="jsgp8Io5BWECslSWmgJ6-186">
          <mxGeometry width="30" height="30" as="geometry" />
        </mxCell>
        <mxCell id="jsgp8Io5BWECslSWmgJ6-188" value="orderAmount FLOAT" style="shape=partialRectangle;connectable=0;fillColor=none;top=0;left=0;bottom=0;right=0;align=left;spacingLeft=6;overflow=hidden;" vertex="1" parent="jsgp8Io5BWECslSWmgJ6-186">
          <mxGeometry x="30" width="150" height="30" as="geometry" />
        </mxCell>
        <mxCell id="jsgp8Io5BWECslSWmgJ6-189" value="" style="shape=partialRectangle;collapsible=0;dropTarget=0;pointerEvents=0;fillColor=none;top=0;left=0;bottom=0;right=0;points=[[0,0.5],[1,0.5]];portConstraint=eastwest;" vertex="1" parent="jsgp8Io5BWECslSWmgJ6-176">
          <mxGeometry y="150" width="180" height="30" as="geometry" />
        </mxCell>
        <mxCell id="jsgp8Io5BWECslSWmgJ6-190" value="" style="shape=partialRectangle;connectable=0;fillColor=none;top=0;left=0;bottom=0;right=0;editable=1;overflow=hidden;" vertex="1" parent="jsgp8Io5BWECslSWmgJ6-189">
          <mxGeometry width="30" height="30" as="geometry" />
        </mxCell>
        <mxCell id="jsgp8Io5BWECslSWmgJ6-191" value="unitPrice FLOAT" style="shape=partialRectangle;connectable=0;fillColor=none;top=0;left=0;bottom=0;right=0;align=left;spacingLeft=6;overflow=hidden;" vertex="1" parent="jsgp8Io5BWECslSWmgJ6-189">
          <mxGeometry x="30" width="150" height="30" as="geometry" />
        </mxCell>
        <mxCell id="jsgp8Io5BWECslSWmgJ6-192" value="" style="shape=partialRectangle;collapsible=0;dropTarget=0;pointerEvents=0;fillColor=none;top=0;left=0;bottom=0;right=0;points=[[0,0.5],[1,0.5]];portConstraint=eastwest;" vertex="1" parent="jsgp8Io5BWECslSWmgJ6-176">
          <mxGeometry y="180" width="180" height="30" as="geometry" />
        </mxCell>
        <mxCell id="jsgp8Io5BWECslSWmgJ6-193" value="" style="shape=partialRectangle;connectable=0;fillColor=none;top=0;left=0;bottom=0;right=0;editable=1;overflow=hidden;" vertex="1" parent="jsgp8Io5BWECslSWmgJ6-192">
          <mxGeometry width="30" height="30" as="geometry" />
        </mxCell>
        <mxCell id="jsgp8Io5BWECslSWmgJ6-194" value="quantity INT(11)" style="shape=partialRectangle;connectable=0;fillColor=none;top=0;left=0;bottom=0;right=0;align=left;spacingLeft=6;overflow=hidden;" vertex="1" parent="jsgp8Io5BWECslSWmgJ6-192">
          <mxGeometry x="30" width="150" height="30" as="geometry" />
        </mxCell>
        <mxCell id="jsgp8Io5BWECslSWmgJ6-195" value="" style="shape=partialRectangle;collapsible=0;dropTarget=0;pointerEvents=0;fillColor=none;top=0;left=0;bottom=0;right=0;points=[[0,0.5],[1,0.5]];portConstraint=eastwest;" vertex="1" parent="jsgp8Io5BWECslSWmgJ6-176">
          <mxGeometry y="210" width="180" height="30" as="geometry" />
        </mxCell>
        <mxCell id="jsgp8Io5BWECslSWmgJ6-196" value="" style="shape=partialRectangle;connectable=0;fillColor=none;top=0;left=0;bottom=0;right=0;editable=1;overflow=hidden;" vertex="1" parent="jsgp8Io5BWECslSWmgJ6-195">
          <mxGeometry width="30" height="30" as="geometry" />
        </mxCell>
        <mxCell id="jsgp8Io5BWECslSWmgJ6-197" value="orderNote VARCHAR(50)" style="shape=partialRectangle;connectable=0;fillColor=none;top=0;left=0;bottom=0;right=0;align=left;spacingLeft=6;overflow=hidden;" vertex="1" parent="jsgp8Io5BWECslSWmgJ6-195">
          <mxGeometry x="30" width="150" height="30" as="geometry" />
        </mxCell>
        <mxCell id="jsgp8Io5BWECslSWmgJ6-198" value="" style="shape=partialRectangle;collapsible=0;dropTarget=0;pointerEvents=0;fillColor=none;top=0;left=0;bottom=0;right=0;points=[[0,0.5],[1,0.5]];portConstraint=eastwest;" vertex="1" parent="jsgp8Io5BWECslSWmgJ6-176">
          <mxGeometry y="240" width="180" height="30" as="geometry" />
        </mxCell>
        <mxCell id="jsgp8Io5BWECslSWmgJ6-199" value="" style="shape=partialRectangle;connectable=0;fillColor=none;top=0;left=0;bottom=0;right=0;editable=1;overflow=hidden;" vertex="1" parent="jsgp8Io5BWECslSWmgJ6-198">
          <mxGeometry width="30" height="30" as="geometry" />
        </mxCell>
        <mxCell id="jsgp8Io5BWECslSWmgJ6-200" value="orderDate TIMESTAMP" style="shape=partialRectangle;connectable=0;fillColor=none;top=0;left=0;bottom=0;right=0;align=left;spacingLeft=6;overflow=hidden;" vertex="1" parent="jsgp8Io5BWECslSWmgJ6-198">
          <mxGeometry x="30" width="150" height="30" as="geometry" />
        </mxCell>
        <mxCell id="jsgp8Io5BWECslSWmgJ6-201" value="" style="shape=partialRectangle;collapsible=0;dropTarget=0;pointerEvents=0;fillColor=none;top=0;left=0;bottom=0;right=0;points=[[0,0.5],[1,0.5]];portConstraint=eastwest;" vertex="1" parent="jsgp8Io5BWECslSWmgJ6-176">
          <mxGeometry y="270" width="180" height="30" as="geometry" />
        </mxCell>
        <mxCell id="jsgp8Io5BWECslSWmgJ6-202" value="" style="shape=partialRectangle;connectable=0;fillColor=none;top=0;left=0;bottom=0;right=0;editable=1;overflow=hidden;" vertex="1" parent="jsgp8Io5BWECslSWmgJ6-201">
          <mxGeometry width="30" height="30" as="geometry" />
        </mxCell>
        <mxCell id="jsgp8Io5BWECslSWmgJ6-203" value="location geography" style="shape=partialRectangle;connectable=0;fillColor=none;top=0;left=0;bottom=0;right=0;align=left;spacingLeft=6;overflow=hidden;" vertex="1" parent="jsgp8Io5BWECslSWmgJ6-201">
          <mxGeometry x="30" width="150" height="30" as="geometry" />
        </mxCell>
        <mxCell id="jsgp8Io5BWECslSWmgJ6-204" value="" style="edgeStyle=entityRelationEdgeStyle;fontSize=12;html=1;endArrow=ERoneToMany;exitX=1;exitY=0;exitDx=0;exitDy=0;" edge="1" parent="1" source="jsgp8Io5BWECslSWmgJ6-176">
          <mxGeometry width="100" height="100" relative="1" as="geometry">
            <mxPoint x="530" y="870" as="sourcePoint" />
            <mxPoint x="600" y="680" as="targetPoint" />
          </mxGeometry>
        </mxCell>
        <mxCell id="jsgp8Io5BWECslSWmgJ6-205" value="" style="edgeStyle=entityRelationEdgeStyle;fontSize=12;html=1;endArrow=ERoneToMany;entryX=0;entryY=0.5;entryDx=0;entryDy=0;" edge="1" parent="1" target="jsgp8Io5BWECslSWmgJ6-186">
          <mxGeometry width="100" height="100" relative="1" as="geometry">
            <mxPoint y="310" as="sourcePoint" />
            <mxPoint x="470" y="540" as="targetPoint" />
          </mxGeometry>
        </mxCell>
        <mxCell id="jsgp8Io5BWECslSWmgJ6-206" value="tblStore" style="shape=table;startSize=30;container=1;collapsible=1;childLayout=tableLayout;fixedRows=1;rowLines=0;fontStyle=1;align=center;resizeLast=1;" vertex="1" parent="1">
          <mxGeometry x="610" y="50" width="210" height="180" as="geometry" />
        </mxCell>
        <mxCell id="jsgp8Io5BWECslSWmgJ6-207" value="" style="shape=partialRectangle;collapsible=0;dropTarget=0;pointerEvents=0;fillColor=none;top=0;left=0;bottom=1;right=0;points=[[0,0.5],[1,0.5]];portConstraint=eastwest;" vertex="1" parent="jsgp8Io5BWECslSWmgJ6-206">
          <mxGeometry y="30" width="210" height="30" as="geometry" />
        </mxCell>
        <mxCell id="jsgp8Io5BWECslSWmgJ6-208" value="PK" style="shape=partialRectangle;connectable=0;fillColor=none;top=0;left=0;bottom=0;right=0;fontStyle=1;overflow=hidden;" vertex="1" parent="jsgp8Io5BWECslSWmgJ6-207">
          <mxGeometry width="30" height="30" as="geometry" />
        </mxCell>
        <mxCell id="jsgp8Io5BWECslSWmgJ6-209" value="storeID" style="shape=partialRectangle;connectable=0;fillColor=none;top=0;left=0;bottom=0;right=0;align=left;spacingLeft=6;fontStyle=5;overflow=hidden;" vertex="1" parent="jsgp8Io5BWECslSWmgJ6-207">
          <mxGeometry x="30" width="180" height="30" as="geometry" />
        </mxCell>
        <mxCell id="jsgp8Io5BWECslSWmgJ6-210" value="" style="shape=partialRectangle;collapsible=0;dropTarget=0;pointerEvents=0;fillColor=none;top=0;left=0;bottom=0;right=0;points=[[0,0.5],[1,0.5]];portConstraint=eastwest;" vertex="1" parent="jsgp8Io5BWECslSWmgJ6-206">
          <mxGeometry y="60" width="210" height="30" as="geometry" />
        </mxCell>
        <mxCell id="jsgp8Io5BWECslSWmgJ6-211" value="" style="shape=partialRectangle;connectable=0;fillColor=none;top=0;left=0;bottom=0;right=0;editable=1;overflow=hidden;" vertex="1" parent="jsgp8Io5BWECslSWmgJ6-210">
          <mxGeometry width="30" height="30" as="geometry" />
        </mxCell>
        <mxCell id="jsgp8Io5BWECslSWmgJ6-212" value="userID INT(11)" style="shape=partialRectangle;connectable=0;fillColor=none;top=0;left=0;bottom=0;right=0;align=left;spacingLeft=6;overflow=hidden;" vertex="1" parent="jsgp8Io5BWECslSWmgJ6-210">
          <mxGeometry x="30" width="180" height="30" as="geometry" />
        </mxCell>
        <mxCell id="jsgp8Io5BWECslSWmgJ6-213" value="" style="shape=partialRectangle;collapsible=0;dropTarget=0;pointerEvents=0;fillColor=none;top=0;left=0;bottom=0;right=0;points=[[0,0.5],[1,0.5]];portConstraint=eastwest;" vertex="1" parent="jsgp8Io5BWECslSWmgJ6-206">
          <mxGeometry y="90" width="210" height="30" as="geometry" />
        </mxCell>
        <mxCell id="jsgp8Io5BWECslSWmgJ6-214" value="" style="shape=partialRectangle;connectable=0;fillColor=none;top=0;left=0;bottom=0;right=0;editable=1;overflow=hidden;" vertex="1" parent="jsgp8Io5BWECslSWmgJ6-213">
          <mxGeometry width="30" height="30" as="geometry" />
        </mxCell>
        <mxCell id="jsgp8Io5BWECslSWmgJ6-215" value="prodID INT(11)" style="shape=partialRectangle;connectable=0;fillColor=none;top=0;left=0;bottom=0;right=0;align=left;spacingLeft=6;overflow=hidden;" vertex="1" parent="jsgp8Io5BWECslSWmgJ6-213">
          <mxGeometry x="30" width="180" height="30" as="geometry" />
        </mxCell>
        <mxCell id="jsgp8Io5BWECslSWmgJ6-219" value="" style="shape=partialRectangle;collapsible=0;dropTarget=0;pointerEvents=0;fillColor=none;top=0;left=0;bottom=0;right=0;points=[[0,0.5],[1,0.5]];portConstraint=eastwest;" vertex="1" parent="jsgp8Io5BWECslSWmgJ6-206">
          <mxGeometry y="120" width="210" height="30" as="geometry" />
        </mxCell>
        <mxCell id="jsgp8Io5BWECslSWmgJ6-220" value="" style="shape=partialRectangle;connectable=0;fillColor=none;top=0;left=0;bottom=0;right=0;editable=1;overflow=hidden;" vertex="1" parent="jsgp8Io5BWECslSWmgJ6-219">
          <mxGeometry width="30" height="30" as="geometry" />
        </mxCell>
        <mxCell id="jsgp8Io5BWECslSWmgJ6-221" value="storeName VARCHAR(50)" style="shape=partialRectangle;connectable=0;fillColor=none;top=0;left=0;bottom=0;right=0;align=left;spacingLeft=6;overflow=hidden;" vertex="1" parent="jsgp8Io5BWECslSWmgJ6-219">
          <mxGeometry x="30" width="180" height="30" as="geometry" />
        </mxCell>
        <mxCell id="jsgp8Io5BWECslSWmgJ6-216" value="" style="shape=partialRectangle;collapsible=0;dropTarget=0;pointerEvents=0;fillColor=none;top=0;left=0;bottom=0;right=0;points=[[0,0.5],[1,0.5]];portConstraint=eastwest;" vertex="1" parent="jsgp8Io5BWECslSWmgJ6-206">
          <mxGeometry y="150" width="210" height="30" as="geometry" />
        </mxCell>
        <mxCell id="jsgp8Io5BWECslSWmgJ6-217" value="" style="shape=partialRectangle;connectable=0;fillColor=none;top=0;left=0;bottom=0;right=0;editable=1;overflow=hidden;" vertex="1" parent="jsgp8Io5BWECslSWmgJ6-216">
          <mxGeometry width="30" height="30" as="geometry" />
        </mxCell>
        <mxCell id="jsgp8Io5BWECslSWmgJ6-218" value="" style="shape=partialRectangle;connectable=0;fillColor=none;top=0;left=0;bottom=0;right=0;align=left;spacingLeft=6;overflow=hidden;" vertex="1" parent="jsgp8Io5BWECslSWmgJ6-216">
          <mxGeometry x="30" width="180" height="30" as="geometry" />
        </mxCell>
      </root>
    </mxGraphModel>
  </diagram>
</mxfile>
